<svg width="206" height="96" viewBox="0 0 206 96" fill="none" xmlns="http://www.w3.org/2000/svg">
<rect width="206" height="96" rx="12" fill="#303030"/>
<path d="M82.8153 41.2386C86.5483 41.2386 89.267 39.0994 89.2585 36.1506C89.267 33.9688 87.9034 32.4006 85.4574 32.0511V31.9148C87.3494 31.5057 88.6193 30.0994 88.6108 28.1392C88.6193 25.4801 86.3523 23.3068 82.8665 23.3068C79.4744 23.3068 76.8494 25.3267 76.7812 28.25H79.8239C79.875 26.7841 81.2386 25.8722 82.8494 25.8722C84.4773 25.8722 85.5597 26.8608 85.5511 28.3267C85.5597 29.8523 84.2983 30.8665 82.4915 30.8665H80.9489V33.304H82.4915C84.6989 33.304 86.0114 34.4119 86.0028 35.9886C86.0114 37.5312 84.6733 38.5881 82.8068 38.5881C81.0511 38.5881 79.696 37.6761 79.6193 36.2528H76.4148C76.5 39.2017 79.1335 41.2386 82.8153 41.2386ZM98.5521 41.2386C102.242 41.2386 104.816 38.733 104.816 35.2642C104.816 31.9062 102.481 29.4858 99.3107 29.4858C97.8959 29.4858 96.643 30.0483 95.9953 30.8153H95.893L96.3959 26.1875H103.904V23.5455H93.7794L92.8675 32.5455L95.7226 33.0142C96.3107 32.3665 97.4186 31.9318 98.4669 31.9403C100.385 31.9489 101.765 33.3636 101.757 35.3409C101.765 37.2926 100.419 38.6818 98.5521 38.6818C96.9754 38.6818 95.7055 37.6847 95.5947 36.2528H92.5266C92.6118 39.1506 95.143 41.2386 98.5521 41.2386ZM114.423 41.3324C118.633 41.3409 121.148 38.017 121.148 32.2898C121.148 26.5966 118.616 23.3068 114.423 23.3068C110.23 23.3068 107.707 26.5881 107.699 32.2898C107.699 38.0085 110.213 41.3324 114.423 41.3324ZM114.423 38.6648C112.25 38.6648 110.886 36.483 110.895 32.2898C110.903 28.1307 112.258 25.9403 114.423 25.9403C116.596 25.9403 117.952 28.1307 117.96 32.2898C117.96 36.483 116.605 38.6648 114.423 38.6648ZM129.461 38.2045H132.137V33.6449H136.697V30.9688H132.137V26.4091H129.461V30.9688H124.901V33.6449H129.461V38.2045Z" fill="#FAFAF9"/>
<path d="M76.8864 58.3636H75.4091L79.6818 70H81.1364L85.4091 58.3636H83.9318L80.4773 68.1591H80.3409L76.8864 58.3636ZM87.5398 70H88.8807V61.2727H87.5398V70ZM88.2216 59.8182C88.7443 59.8182 89.1761 59.4091 89.1761 58.9091C89.1761 58.4091 88.7443 58 88.2216 58C87.6989 58 87.267 58.4091 87.267 58.9091C87.267 59.4091 87.6989 59.8182 88.2216 59.8182ZM95.1321 70.1818C96.8139 70.1818 97.3821 69.1364 97.6776 68.6591H97.8366V70H99.1321V58.3636H97.7912V62.6591H97.6776C97.3821 62.2045 96.8594 61.1591 95.1548 61.1591C92.9503 61.1591 91.4276 62.9091 91.4276 65.6591C91.4276 68.4318 92.9503 70.1818 95.1321 70.1818ZM95.3139 68.9773C93.6321 68.9773 92.7685 67.5 92.7685 65.6364C92.7685 63.7955 93.6094 62.3636 95.3139 62.3636C96.9503 62.3636 97.8139 63.6818 97.8139 65.6364C97.8139 67.6136 96.9276 68.9773 95.3139 68.9773ZM105.933 70.1818C107.706 70.1818 109.001 69.2955 109.411 67.9773L108.115 67.6136C107.774 68.5227 106.984 68.9773 105.933 68.9773C104.359 68.9773 103.274 67.9602 103.212 66.0909H109.547V65.5227C109.547 62.2727 107.615 61.1591 105.797 61.1591C103.433 61.1591 101.865 63.0227 101.865 65.7045C101.865 68.3864 103.411 70.1818 105.933 70.1818ZM103.212 64.9318C103.303 63.5739 104.263 62.3636 105.797 62.3636C107.251 62.3636 108.183 63.4545 108.183 64.9318H103.212ZM115.632 70.1818C117.996 70.1818 119.587 68.3864 119.587 65.6818C119.587 62.9545 117.996 61.1591 115.632 61.1591C113.268 61.1591 111.678 62.9545 111.678 65.6818C111.678 68.3864 113.268 70.1818 115.632 70.1818ZM115.632 68.9773C113.837 68.9773 113.018 67.4318 113.018 65.6818C113.018 63.9318 113.837 62.3636 115.632 62.3636C117.428 62.3636 118.246 63.9318 118.246 65.6818C118.246 67.4318 117.428 68.9773 115.632 68.9773ZM130.929 61.2727H129.065V59.1818H127.724V61.2727H126.406V62.4091H127.724V67.8636C127.724 69.3864 128.952 70.1136 130.088 70.1136C130.588 70.1136 130.906 70.0227 131.088 69.9545L130.815 68.75C130.702 68.7727 130.52 68.8182 130.224 68.8182C129.634 68.8182 129.065 68.6364 129.065 67.5V62.4091H130.929V61.2727ZM138.946 66.4318C138.946 68.0682 137.696 68.8182 136.696 68.8182C135.582 68.8182 134.787 68 134.787 66.7273V61.2727H133.446V66.8182C133.446 69.0455 134.628 70.1136 136.264 70.1136C137.582 70.1136 138.446 69.4091 138.855 68.5227H138.946V70H140.287V61.2727H138.946V66.4318ZM147.038 61.2727H145.175V59.1818H143.834V61.2727H142.516V62.4091H143.834V67.8636C143.834 69.3864 145.061 70.1136 146.197 70.1136C146.697 70.1136 147.016 70.0227 147.197 69.9545L146.925 68.75C146.811 68.7727 146.629 68.8182 146.334 68.8182C145.743 68.8182 145.175 68.6364 145.175 67.5V62.4091H147.038V61.2727ZM153.007 70.1818C155.371 70.1818 156.962 68.3864 156.962 65.6818C156.962 62.9545 155.371 61.1591 153.007 61.1591C150.643 61.1591 149.053 62.9545 149.053 65.6818C149.053 68.3864 150.643 70.1818 153.007 70.1818ZM153.007 68.9773C151.212 68.9773 150.393 67.4318 150.393 65.6818C150.393 63.9318 151.212 62.3636 153.007 62.3636C154.803 62.3636 155.621 63.9318 155.621 65.6818C155.621 67.4318 154.803 68.9773 153.007 68.9773ZM159.509 70H160.849V64.4773C160.849 63.2955 161.781 62.4318 163.054 62.4318C163.412 62.4318 163.781 62.5 163.872 62.5227V61.1591C163.719 61.1477 163.366 61.1364 163.168 61.1364C162.122 61.1364 161.213 61.7273 160.895 62.5909H160.804V61.2727H159.509V70ZM165.962 70H167.303V61.2727H165.962V70ZM166.643 59.8182C167.166 59.8182 167.598 59.4091 167.598 58.9091C167.598 58.4091 167.166 58 166.643 58C166.121 58 165.689 58.4091 165.689 58.9091C165.689 59.4091 166.121 59.8182 166.643 59.8182ZM172.827 70.2045C174.349 70.2045 175.145 69.3864 175.418 68.8182H175.486V70H176.827V64.25C176.827 61.4773 174.713 61.1591 173.599 61.1591C172.281 61.1591 170.781 61.6136 170.099 63.2045L171.372 63.6591C171.668 63.0227 172.366 62.3409 173.645 62.3409C174.878 62.3409 175.486 62.9943 175.486 64.1136V64.1591C175.486 64.8068 174.827 64.75 173.236 64.9545C171.616 65.1648 169.849 65.5227 169.849 67.5227C169.849 69.2273 171.168 70.2045 172.827 70.2045ZM173.031 69C171.963 69 171.19 68.5227 171.19 67.5909C171.19 66.5682 172.122 66.25 173.168 66.1136C173.736 66.0455 175.259 65.8864 175.486 65.6136V66.8409C175.486 67.9318 174.622 69 173.031 69ZM181.115 58.3636H179.774V70H181.115V58.3636Z" fill="#EFEDE8" fill-opacity="0.65"/>
<circle cx="43" cy="48" r="20" fill="#EF8963"/>
<path d="M53 48L38 56.6603V39.3397L53 48Z" fill="#FAFAF9"/>
</svg>
