<svg width="193" height="98" viewBox="0 0 193 98" fill="none" xmlns="http://www.w3.org/2000/svg">
<rect width="193" height="98" rx="12" fill="#7A29DC"/>
<path d="M36.6989 52.3977C42.8494 52.3977 47.1392 48.2216 47.1392 42.4403C47.1392 36.8438 43.2472 32.8097 37.9631 32.8097C35.6051 32.8097 33.517 33.7472 32.4375 35.0256H32.267L33.1051 27.3125H45.6193V22.9091H28.7443L27.2244 37.9091L31.983 38.6903C32.9631 37.6108 34.8097 36.8864 36.5568 36.9006C39.7528 36.9148 42.054 39.2727 42.0398 42.5682C42.054 45.821 39.8097 48.1364 36.6989 48.1364C34.071 48.1364 31.9545 46.4744 31.7699 44.0881H26.6562C26.7983 48.9176 31.017 52.3977 36.6989 52.3977ZM63.6506 52.554C70.6676 52.5682 74.858 47.0284 74.858 37.483C74.858 27.9943 70.6392 22.5114 63.6506 22.5114C56.6619 22.5114 52.4574 27.9801 52.4432 37.483C52.4432 47.0142 56.6335 52.554 63.6506 52.554ZM63.6506 48.108C60.0284 48.108 57.7557 44.4716 57.7699 37.483C57.7841 30.5511 60.0426 26.9006 63.6506 26.9006C67.2727 26.9006 69.5312 30.5511 69.5455 37.483C69.5455 44.4716 67.2869 48.108 63.6506 48.108ZM91.3303 52.554C98.3473 52.5682 102.538 47.0284 102.538 37.483C102.538 27.9943 98.3189 22.5114 91.3303 22.5114C84.3416 22.5114 80.1371 27.9801 80.1229 37.483C80.1229 47.0142 84.3132 52.554 91.3303 52.554ZM91.3303 48.108C87.7081 48.108 85.4354 44.4716 85.4496 37.483C85.4638 30.5511 87.7223 26.9006 91.3303 26.9006C94.9524 26.9006 97.2109 30.5511 97.2251 37.483C97.2251 44.4716 94.9666 48.108 91.3303 48.108ZM116.893 47.3409H121.354V39.7415H128.953V35.2812H121.354V27.6818H116.893V35.2812H109.294V39.7415H116.893V47.3409Z" fill="#FAFAF9"/>
<path d="M25.1449 77H26.2898V72.7713H30.3892V71.7557H26.2898V68.5611H30.8139V67.5455H25.1449V77ZM33.5509 77H34.6404V72.5128C34.6404 71.5526 35.3975 70.8509 36.4316 70.8509C36.7224 70.8509 37.0225 70.9062 37.0963 70.9247V69.8168C36.9717 69.8075 36.6855 69.7983 36.5239 69.7983C35.6744 69.7983 34.9358 70.2784 34.6773 70.9801H34.6034V69.9091H33.5509V77ZM42.145 77.1477C43.5853 77.1477 44.6379 76.4276 44.9703 75.3565L43.9177 75.0611C43.6407 75.7997 42.999 76.169 42.145 76.169C40.8662 76.169 39.9845 75.3427 39.9337 73.8239H45.0811V73.3622C45.0811 70.7216 43.5115 69.8168 42.0342 69.8168C40.1137 69.8168 38.8396 71.331 38.8396 73.5099C38.8396 75.6889 40.0953 77.1477 42.145 77.1477ZM39.9337 72.8821C40.0075 71.7788 40.7877 70.7955 42.0342 70.7955C43.216 70.7955 43.9731 71.6818 43.9731 72.8821H39.9337ZM50.7114 77.1477C52.1517 77.1477 53.2043 76.4276 53.5367 75.3565L52.4841 75.0611C52.2071 75.7997 51.5654 76.169 50.7114 76.169C49.4326 76.169 48.5509 75.3427 48.5001 73.8239H53.6475V73.3622C53.6475 70.7216 52.0779 69.8168 50.6006 69.8168C48.6801 69.8168 47.406 71.331 47.406 73.5099C47.406 75.6889 48.6617 77.1477 50.7114 77.1477ZM48.5001 72.8821C48.574 71.7788 49.3541 70.7955 50.6006 70.7955C51.7824 70.7955 52.5395 71.6818 52.5395 72.8821H48.5001ZM62.8261 77H64.0079L66.0945 69.4659H66.1684L68.2551 77H69.4369L72.0221 67.5455H70.8588L68.8829 75.2457H68.7906L66.7778 67.5455H65.4852L63.4724 75.2457H63.3801L61.4042 67.5455H60.2409L62.8261 77ZM76.5214 77.1477C78.4419 77.1477 79.7345 75.6889 79.7345 73.4915C79.7345 71.2756 78.4419 69.8168 76.5214 69.8168C74.6009 69.8168 73.3083 71.2756 73.3083 73.4915C73.3083 75.6889 74.6009 77.1477 76.5214 77.1477ZM76.5214 76.169C75.0626 76.169 74.3978 74.9134 74.3978 73.4915C74.3978 72.0696 75.0626 70.7955 76.5214 70.7955C77.9802 70.7955 78.645 72.0696 78.645 73.4915C78.645 74.9134 77.9802 76.169 76.5214 76.169ZM82.3975 77H83.487V72.5128C83.487 71.5526 84.2441 70.8509 85.2782 70.8509C85.5691 70.8509 85.8691 70.9062 85.943 70.9247V69.8168C85.8184 69.8075 85.5321 69.7983 85.3706 69.7983C84.5211 69.7983 83.7825 70.2784 83.524 70.9801H83.4501V69.9091H82.3975V77ZM88.2345 77H89.324V74.3455L90.0857 73.6392L92.7401 77H94.1251L90.9074 72.9375L93.9035 69.9091H92.5555L89.4532 73.0668H89.324V67.5455H88.2345V77ZM98.8944 77.1477C100.815 77.1477 102.108 75.6889 102.108 73.4915C102.108 71.2756 100.815 69.8168 98.8944 69.8168C96.974 69.8168 95.6814 71.2756 95.6814 73.4915C95.6814 75.6889 96.974 77.1477 98.8944 77.1477ZM98.8944 76.169C97.4356 76.169 96.7709 74.9134 96.7709 73.4915C96.7709 72.0696 97.4356 70.7955 98.8944 70.7955C100.353 70.7955 101.018 72.0696 101.018 73.4915C101.018 74.9134 100.353 76.169 98.8944 76.169ZM109.239 74.1009C109.239 75.4304 108.224 76.0398 107.411 76.0398C106.506 76.0398 105.86 75.375 105.86 74.3409V69.9091H104.771V74.4148C104.771 76.2244 105.731 77.0923 107.06 77.0923C108.131 77.0923 108.833 76.5199 109.165 75.7997H109.239V77H110.329V69.9091H109.239V74.1009ZM116.408 69.9091H114.894V68.2102H113.804V69.9091H112.733V70.8324H113.804V75.2642C113.804 76.5014 114.802 77.0923 115.725 77.0923C116.131 77.0923 116.39 77.0185 116.537 76.9631L116.316 75.9844C116.223 76.0028 116.076 76.0398 115.836 76.0398C115.356 76.0398 114.894 75.892 114.894 74.9688V70.8324H116.408V69.9091ZM124.239 67.5455H123.038L126.51 77H127.692L131.163 67.5455H129.963L127.156 75.5043H127.046L124.239 67.5455ZM133.488 77H134.578V69.9091H133.488V77ZM134.042 68.7273C134.467 68.7273 134.818 68.3949 134.818 67.9886C134.818 67.5824 134.467 67.25 134.042 67.25C133.618 67.25 133.267 67.5824 133.267 67.9886C133.267 68.3949 133.618 68.7273 134.042 68.7273ZM140.251 77.1477C141.617 77.1477 142.079 76.2983 142.319 75.9105H142.448V77H143.501V67.5455H142.411V71.0355H142.319C142.079 70.6662 141.654 69.8168 140.269 69.8168C138.478 69.8168 137.241 71.2386 137.241 73.473C137.241 75.7259 138.478 77.1477 140.251 77.1477ZM140.399 76.169C139.032 76.169 138.33 74.9688 138.33 73.4545C138.33 71.9588 139.014 70.7955 140.399 70.7955C141.728 70.7955 142.43 71.8665 142.43 73.4545C142.43 75.0611 141.71 76.169 140.399 76.169ZM149.621 77.1477C151.061 77.1477 152.113 76.4276 152.446 75.3565L151.393 75.0611C151.116 75.7997 150.475 76.169 149.621 76.169C148.342 76.169 147.46 75.3427 147.409 73.8239H152.557V73.3622C152.557 70.7216 150.987 69.8168 149.51 69.8168C147.589 69.8168 146.315 71.331 146.315 73.5099C146.315 75.6889 147.571 77.1477 149.621 77.1477ZM147.409 72.8821C147.483 71.7788 148.263 70.7955 149.51 70.7955C150.692 70.7955 151.449 71.6818 151.449 72.8821H147.409ZM158.095 77.1477C160.015 77.1477 161.308 75.6889 161.308 73.4915C161.308 71.2756 160.015 69.8168 158.095 69.8168C156.174 69.8168 154.882 71.2756 154.882 73.4915C154.882 75.6889 156.174 77.1477 158.095 77.1477ZM158.095 76.169C156.636 76.169 155.971 74.9134 155.971 73.4915C155.971 72.0696 156.636 70.7955 158.095 70.7955C159.553 70.7955 160.218 72.0696 160.218 73.4915C160.218 74.9134 159.553 76.169 158.095 76.169ZM168.994 71.4972C168.652 70.4908 167.886 69.8168 166.482 69.8168C164.986 69.8168 163.878 70.6662 163.878 71.8665C163.878 72.8452 164.46 73.5007 165.762 73.8054L166.944 74.0824C167.659 74.2486 167.996 74.5902 167.996 75.0795C167.996 75.6889 167.35 76.1875 166.334 76.1875C165.443 76.1875 164.885 75.8043 164.691 75.0426L163.657 75.3011C163.911 76.506 164.903 77.1477 166.353 77.1477C168.001 77.1477 169.123 76.2475 169.123 75.0241C169.123 74.0362 168.504 73.413 167.239 73.1037L166.187 72.8452C165.347 72.6374 164.968 72.3558 164.968 71.8111C164.968 71.2017 165.614 70.7585 166.482 70.7585C167.433 70.7585 167.826 71.2848 168.015 71.7741L168.994 71.4972Z" fill="#EFEDE8" fill-opacity="0.65"/>
</svg>
